HIERARCHY
ROOT Hips
{
	OFFSET 0.00000 0.00000 0.00000
	CHANNELS 6 Xposition Yposition Zposition Zrotation Yrotation Xrotation 
	JOINT LHipJoint
	{
		OFFSET 0 0 0
		CHANNELS 3 Zrotation Yrotation Xrotation
		JOINT LeftHip
		{
			OFFSET 1.62964 -1.40469 0.78906
			CHANNELS 3 Zrotation Yrotation Xrotation
			JOINT LeftKnee
			{
				OFFSET 2.29640 -6.30932 0.00000
				CHANNELS 3 Zrotation Yrotation Xrotation
				JOINT LeftAnkle
				{
					OFFSET 2.29451 -6.30412 0.00000
					CHANNELS 3 Zrotation Yrotation Xrotation
					JOINT LeftToe
					{
						OFFSET 0.03611 -0.09921 1.56387
						CHANNELS 3 Zrotation Yrotation Xrotation
						End Site
						{
							OFFSET 0.00000 -0.00000 0.80291
						}
					}
				}
			}
		}
	}
	JOINT RHipJoint
	{
		OFFSET 0 0 0
		CHANNELS 3 Zrotation Yrotation Xrotation
		JOINT RightHip
		{
			OFFSET -1.73712 -1.40469 0.78906
			CHANNELS 3 Zrotation Yrotation Xrotation
			JOINT RightKnee
			{
				OFFSET -2.28137 -6.26801 0.00000
				CHANNELS 3 Zrotation Yrotation Xrotation
				JOINT RightAnkle
				{
					OFFSET -2.28681 -6.28298 0.00000
					CHANNELS 3 Zrotation Yrotation Xrotation
					JOINT RightToe
					{
						OFFSET -0.15927 -0.43759 1.61103
						CHANNELS 3 Zrotation Yrotation Xrotation
						End Site
						{
							OFFSET -0.00000 -0.00000 0.84630
						}
					}
				}
			}
		}
	}
	JOINT lowerback
	{
		OFFSET 0 0 0
		CHANNELS 3 Zrotation Yrotation Xrotation
		JOINT Chest
		{
			OFFSET -0.04227 2.04338 -0.00225
			CHANNELS 3 Zrotation Yrotation Xrotation
			JOINT Chest2
			{
				OFFSET -0.02148 2.04482 -0.04273
				CHANNELS 3 Zrotation Yrotation Xrotation
				JOINT lowerneck
				{
					OFFSET 0 0 0
					CHANNELS 3 Zrotation Yrotation Xrotation
					JOINT Neck
					{
						OFFSET 0.09180 1.44629 0.19359
						CHANNELS 3 Zrotation Yrotation Xrotation
						JOINT Head
						{
							OFFSET 0.00887 1.40645 0.14750
							CHANNELS 3 Zrotation Yrotation Xrotation
							End Site
							{
								OFFSET -0.00669 1.50671 0.03707
							}
						}
					}
				}
				JOINT LeftCollar
				{
					OFFSET 0 0 0
					CHANNELS 3 Zrotation Yrotation Xrotation
					JOINT LeftShoulder
					{
						OFFSET 2.17674 1.86763 -0.06520
CHANNELS 3 Zrotation Xrotation Yrotation
						JOINT LeftElbow
						{
OFFSET 0 -4.657760 0.000000
CHANNELS 3 Zrotation Xrotation Yrotation
							JOINT LeftWrist
							{
OFFSET 0 -3.555390 0.000000
CHANNELS 3 Zrotation Xrotation Yrotation
								JOINT lhand
								{
									OFFSET 0 0 0
CHANNELS 3 Zrotation Xrotation Yrotation
									JOINT LFingers
									{
OFFSET 0 -0.707260 0.000000
CHANNELS 3 Zrotation Xrotation Yrotation
										End Site
										{
OFFSET 0 -0.570220 0.000000
										}
									}
								}
								JOINT LThumb
								{
OFFSET 0 0.000000 0.000000
CHANNELS 3 Zrotation Xrotation Yrotation
									End Site
									{
OFFSET 0 -0.578920 0.578920
									}
								}
							}
						}
					}
				}
				JOINT RightCollar
				{
					OFFSET 0 0 0
					CHANNELS 3 Zrotation Yrotation Xrotation
					JOINT RightShoulder
					{
						OFFSET -2.80694 1.55459 -0.32496
CHANNELS 3 Zrotation Xrotation Yrotation
						JOINT RightElbow
						{
OFFSET 0 -4.719250 -0.000000
CHANNELS 3 Zrotation Xrotation Yrotation
							JOINT RightWrist
							{
OFFSET 0 -3.569900 0.000000
CHANNELS 3 Zrotation Xrotation Yrotation
								JOINT rhand
								{
									OFFSET 0 0 0
CHANNELS 3 Zrotation Xrotation Yrotation
									JOINT RFingers
									{
OFFSET 0 -0.507760 0.000000
CHANNELS 3 Zrotation Xrotation Yrotation
										End Site
										{
OFFSET 0 -0.409370 0.000000
										}
									}
								}
								JOINT RThumb
								{
OFFSET 0 0.000000 0.000000
CHANNELS 3 Zrotation Xrotation Yrotation
									End Site
									{
OFFSET 0 -0.415620 0.415620
									}
								}
							}
						}
					}
				}
			}
		}
	}
}
MOTION
Frames: 8
Frame Time: 0.008333333333333333
9.692945 11.715253 4.319243 -0.175527 -1.363964 18.479459 0.000000 0.000000 0.000000 2.649742 -14.877878 -68.514052 0.000000 0.000000 0.000000 0.000000 0.000000 0.000000 0.000000 0.000000 0.000000 0.000000 0.000000 0.000000 1.036543 11.834604 -65.791652 0.000000 0.000000 0.000000 0.000000 0.000000 0.000000 0.000000 0.000000 0.000000 -2.498743 0.478377 -0.143764 -1.458423 0.694072 1.918516 -0.082453 0.317122 2.036631 7.814727 -0.636874 -11.457713 0.096477 -1.587935 -13.290143 -1.314147 -1.160406 -2.412443 0.000000 0.000000 0.000000 90.000000 0.000000 0.000000 0.000000 0.000000 0.000000 0.000000 0.000000 0.000000 0.000000 0.000000 0.000000 0.000000 0.000000 0.000000 0.000000 0.000000 0.000000 0.000000 0.000000 0.000000 -115.015103 -73.027437 -55.044154 -9.979718 -16.707742 -1.469146 -11.757255 36.173430 35.474624 0.000000 0.000000 0.000000 7.125000 0.000000 0.000000 27.150869 64.030624 -12.985389
9.693436 11.714958 4.319128 -0.183380 -1.364291 18.481177 0.000000 0.000000 0.000000 2.658626 -14.876635 -68.520956 0.000000 0.000000 0.000000 0.000000 0.000000 0.000000 0.000000 0.000000 0.000000 0.000000 0.000000 0.000000 1.040830 11.836813 -65.794155 0.000000 0.000000 0.000000 0.000000 0.000000 0.000000 0.000000 0.000000 0.000000 -2.485229 0.479931 -0.148492 -1.458668 0.696215 1.920349 -0.090159 0.318365 2.041294 7.764582 -0.637021 -11.297739 0.174632 -1.558404 -13.466428 -1.278841 -1.150017 -2.496929 0.000000 0.000000 0.000000 90.000000 0.000000 0.000000 0.000000 0.000000 0.000000 0.000000 0.000000 0.000000 0.000000 0.000000 0.000000 0.000000 0.000000 0.000000 0.000000 0.000000 0.000000 0.000000 0.000000 0.000000 -115.028110 -73.035110 -55.107862 -9.975153 -16.700625 -1.467837 -11.741565 36.202290 35.456071 0.000000 0.000000 0.000000 7.125000 0.000000 0.000000 27.147008 64.010271 -12.970566
9.693927 11.714664 4.319014 -0.191233 -1.364618 18.482895 0.000000 0.000000 0.000000 2.667510 -14.875391 -68.527860 0.000000 0.000000 0.000000 0.000000 0.000000 0.000000 0.000000 0.000000 0.000000 0.000000 0.000000 0.000000 1.045116 11.839022 -65.796658 0.000000 0.000000 0.000000 0.000000 0.000000 0.000000 0.000000 0.000000 0.000000 -2.471715 0.481486 -0.153221 -1.458914 0.698358 1.922181 -0.097865 0.319609 2.045957 7.714437 -0.637168 -11.137765 0.252786 -1.528873 -13.642714 -1.243535 -1.139628 -2.581415 0.000000 0.000000 0.000000 90.000000 0.000000 0.000000 0.000000 0.000000 0.000000 0.000000 0.000000 0.000000 0.000000 0.000000 0.000000 0.000000 0.000000 0.000000 0.000000 0.000000 0.000000 0.000000 0.000000 0.000000 -115.041117 -73.042783 -55.171570 -9.970588 -16.693508 -1.466528 -11.725875 36.231150 35.437518 0.000000 0.000000 0.000000 7.125000 0.000000 0.000000 27.143147 63.989919 -12.955743
9.694418 11.714369 4.318899 -0.199086 -1.364945 18.484613 0.000000 0.000000 0.000000 2.676393 -14.874148 -68.534765 0.000000 0.000000 0.000000 0.000000 0.000000 0.000000 0.000000 0.000000 0.000000 0.000000 0.000000 0.000000 1.049403 11.841230 -65.799161 0.000000 0.000000 0.000000 0.000000 0.000000 0.000000 0.000000 0.000000 0.000000 -2.458202 0.483040 -0.157949 -1.459159 0.700501 1.924013 -0.105570 0.320852 2.050620 7.664292 -0.637315 -10.977791 0.330941 -1.499342 -13.818999 -1.208228 -1.129239 -2.665902 0.000000 0.000000 0.000000 90.000000 0.000000 0.000000 0.000000 0.000000 0.000000 0.000000 0.000000 0.000000 0.000000 0.000000 0.000000 0.000000 0.000000 0.000000 0.000000 0.000000 0.000000 0.000000 0.000000 0.000000 -115.054123 -73.050456 -55.235279 -9.966024 -16.686391 -1.465219 -11.710186 36.260010 35.418965 0.000000 0.000000 0.000000 7.125000 0.000000 0.000000 27.139286 63.969566 -12.940921
9.694909 11.714075 4.318785 -0.206939 -1.365272 18.486330 0.000000 0.000000 0.000000 2.685277 -14.872905 -68.541669 0.000000 0.000000 0.000000 0.000000 0.000000 0.000000 0.000000 0.000000 0.000000 0.000000 0.000000 0.000000 1.053689 11.843439 -65.801664 0.000000 0.000000 0.000000 0.000000 0.000000 0.000000 0.000000 0.000000 0.000000 -2.444688 0.484594 -0.162677 -1.459404 0.702645 1.925846 -0.113276 0.322095 2.055282 7.614146 -0.637463 -10.817817 0.409096 -1.469811 -13.995285 -1.172922 -1.118850 -2.750388 0.000000 0.000000 0.000000 90.000000 0.000000 0.000000 0.000000 0.000000 0.000000 0.000000 0.000000 0.000000 0.000000 0.000000 0.000000 0.000000 0.000000 0.000000 0.000000 0.000000 0.000000 0.000000 0.000000 0.000000 -115.067130 -73.058129 -55.298987 -9.961459 -16.679274 -1.463910 -11.694496 36.288870 35.400412 0.000000 0.000000 0.000000 7.125000 0.000000 0.000000 27.135425 63.949213 -12.926098
9.695399 11.713780 4.318670 -0.214792 -1.365600 18.488048 0.000000 0.000000 0.000000 2.694161 -14.871661 -68.548573 0.000000 0.000000 0.000000 0.000000 0.000000 0.000000 0.000000 0.000000 0.000000 0.000000 0.000000 0.000000 1.057976 11.845648 -65.804167 0.000000 0.000000 0.000000 0.000000 0.000000 0.000000 0.000000 0.000000 0.000000 -2.431174 0.486148 -0.167405 -1.459650 0.704788 1.927678 -0.120982 0.323339 2.059945 7.564001 -0.637610 -10.657843 0.487250 -1.440280 -14.171570 -1.137616 -1.108461 -2.834874 0.000000 0.000000 0.000000 90.000000 0.000000 0.000000 0.000000 0.000000 0.000000 0.000000 0.000000 0.000000 0.000000 0.000000 0.000000 0.000000 0.000000 0.000000 0.000000 0.000000 0.000000 0.000000 0.000000 0.000000 -115.080137 -73.065802 -55.362695 -9.956895 -16.672157 -1.462601 -11.678806 36.317731 35.381859 0.000000 0.000000 0.000000 7.125000 0.000000 0.000000 27.131564 63.928861 -12.911275
9.695808 11.713625 4.318346 -0.222734 -1.366688 18.490940 0.000000 0.000000 0.000000 2.703095 -14.867925 -68.559410 0.000000 0.000000 0.000000 0.000000 0.000000 0.000000 0.000000 0.000000 0.000000 0.000000 0.000000 0.000000 1.062560 11.850565 -65.808212 0.000000 0.000000 0.000000 0.000000 0.000000 0.000000 0.000000 0.000000 0.000000 -2.419094 0.488077 -0.172349 -1.459026 0.707445 1.930075 -0.126988 0.324804 2.065274 7.582909 -0.644196 -10.619203 0.480460 -1.446827 -14.221713 -1.143247 -1.114115 -2.859410 0.000000 0.000000 0.000000 90.000000 0.000000 0.000000 0.000000 0.000000 0.000000 0.000000 0.000000 0.000000 0.000000 0.000000 0.000000 0.000000 0.000000 0.000000 0.000000 0.000000 0.000000 0.000000 0.000000 0.000000 -115.094996 -73.069079 -55.410156 -9.953529 -16.666906 -1.461635 -11.672461 36.333909 35.363262 0.000000 0.000000 0.000000 7.125000 0.000000 0.000000 27.117724 63.910970 -12.892938
9.696086 11.713691 4.317692 -0.230816 -1.368979 18.495684 0.000000 0.000000 0.000000 2.712110 -14.860252 -68.576458 0.000000 0.000000 0.000000 0.000000 0.000000 0.000000 0.000000 0.000000 0.000000 0.000000 0.000000 0.000000 1.067616 11.859760 -65.814691 0.000000 0.000000 0.000000 0.000000 0.000000 0.000000 0.000000 0.000000 0.000000 -2.409277 0.490596 -0.177634 -1.457030 0.710913 1.933364 -0.130309 0.326620 2.071655 7.710849 -0.660949 -10.772142 0.339546 -1.510339 -14.072685 -1.213516 -1.145102 -2.789288 0.000000 0.000000 0.000000 90.000000 0.000000 0.000000 0.000000 0.000000 0.000000 0.000000 0.000000 0.000000 0.000000 0.000000 0.000000 0.000000 0.000000 0.000000 0.000000 0.000000 0.000000 0.000000 0.000000 0.000000 -115.112780 -73.065414 -55.431965 -9.952057 -16.664599 -1.461210 -11.680870 36.330064 35.344594 0.000000 0.000000 0.000000 7.125000 0.000000 0.000000 27.088128 63.896965 -12.869051
